# xmcd
#
# Track frame offsets: 
#        150
#        12485
#        27422
#        42212
#        59260
#        70500
#        75362
#        87085
#        107575
#        123075
#        137135
#        146875
#
# Disc length: 2387 seconds
#
# Revision: 5
# Processed by: cddbd v1.5.2PL0 Copyright (c) Steve Scherf et al.
# Submitted via: ExactAudioCopy v1.1
#
DISCID=9709510c
DTITLE=Reichel, Achim - Ungeschminkt
DYEAR=1991
DGENRE=Rock
TTITLE0=Baby, laß mich rein
TTITLE1=Liebes, Du bist so schön
TTITLE2=Bessie kommt
TTITLE3=Riverside Drive
TTITLE4=Coconußöl
TTITLE5=Blues aus Bayern
TTITLE6=Schlechtes Mädchen
TTITLE7=Darling Ultra
TTITLE8=Am besten, Du gehst
TTITLE9=Den Kopf voll Suff und Kino
TTITLE10=Sie ließ alles stehn und ging
TTITLE11=Hart am Ball
EXTD=WEA  9031-75872-2\nWEA Music  ( Warner Music Germany )
EXTT0=
EXTT1=
EXTT2=
EXTT3=
EXTT4=
EXTT5=
EXTT6=
EXTT7=
EXTT8=
EXTT9=
EXTT10=
EXTT11=
PLAYORDER=
